<svg width="309" height="298" viewBox="0 0 309 298" fill="none" xmlns="http://www.w3.org/2000/svg">
<circle cx="155" cy="149" r="144" stroke="#960200" stroke-width="2" stroke-dasharray="10 10"/>
<path d="M55.579 172.3L55.4172 171.419L60.8307 170.425L63.5759 185.375L62.6947 185.537L62.1565 183.846C62.0529 183.518 61.9323 183.334 61.7949 183.294C61.6365 183.258 61.2005 183.306 60.4871 183.437L44.3726 186.396C43.6592 186.527 43.2453 186.635 43.1309 186.721C42.9956 186.811 42.9378 187.028 42.9575 187.371L43.055 189.143L42.1738 189.305L40.5902 180.681L41.4715 180.519L42.0097 182.21C42.1133 182.538 42.2443 182.72 42.4027 182.756C42.5402 182.796 42.9656 182.75 43.679 182.619L61.3358 179.377L60.388 174.215C60.2955 173.711 60.2195 173.357 60.16 173.151C60.0795 172.949 59.981 172.826 59.8645 172.782C59.7232 172.721 59.5209 172.682 59.2576 172.666L55.579 172.3Z" fill="black"/>
<path d="M56.384 148.49C57.8526 148.96 58.8761 149.735 59.4544 150.816C60.0115 151.895 60.2498 153.127 60.1695 154.511C60.0211 157.067 59.1751 158.941 57.6314 160.134C56.0664 161.325 54.0593 161.85 51.6101 161.707L50.9712 161.67C48.522 161.528 46.5972 160.818 45.1969 159.54C43.7978 158.241 43.1645 156.452 43.2967 154.173C43.3709 152.895 43.692 151.781 44.26 150.831C44.8079 149.859 45.5665 149.123 46.5357 148.623C47.5062 148.103 48.6623 147.881 50.0041 147.959C50.3235 147.978 50.663 148.019 51.0226 148.082C51.3834 148.125 51.7424 148.199 52.0995 148.305L51.5507 157.761L52.4771 157.815C54.7346 157.946 56.3824 157.721 57.4205 157.14C58.4373 156.558 58.9871 155.554 59.0699 154.127C59.1231 153.211 58.902 152.418 58.4066 151.748C57.89 151.077 56.9845 150.662 55.6903 150.501L56.384 148.49ZM44.4148 154.238C44.3543 155.281 44.7883 156.087 45.7171 156.653C46.6458 157.22 48.2176 157.568 50.4325 157.696L50.7682 151.914C50.3472 151.804 49.9562 151.728 49.5954 151.686C49.2145 151.621 48.8644 151.579 48.5449 151.561C47.1819 151.482 46.1654 151.69 45.4956 152.185C44.8258 152.68 44.4655 153.365 44.4148 154.238Z" fill="black"/>
<path d="M60.8034 127.761C61.9771 128.388 62.7315 129.16 63.0666 130.078C63.387 130.97 63.3937 131.948 63.0867 133.014C62.7738 134.101 62.2812 134.925 61.6089 135.486C60.9162 136.041 60.1228 136.368 59.2288 136.465C58.3349 136.563 57.4369 136.482 56.5349 136.222L48.4169 133.884C47.7199 133.683 47.301 133.596 47.1603 133.622C46.9991 133.642 46.8508 133.81 46.7153 134.127L46.0129 135.756L45.1519 135.508L45.8339 133.14L42.2669 132.113L42.5782 128.373L46.8524 129.604L48.2695 124.684L49.3457 124.994L47.9287 129.914L58.1684 132.863C59.4804 133.241 60.4399 133.34 61.0468 133.159C61.6333 132.973 62.0004 132.624 62.148 132.111C62.3015 131.578 62.2146 131.109 61.8872 130.704C61.5658 130.278 60.8736 129.868 59.8108 129.473L60.8034 127.761Z" fill="black"/>
<path d="M51.41 106.995C52.1354 107.356 52.8898 108.043 53.673 109.053C54.4467 110.035 55.1539 111.294 55.7945 112.829L54.8932 113.202C54.4343 112.163 53.9614 111.367 53.4743 110.814C52.9967 110.242 52.505 109.818 51.9991 109.541L51.9562 109.627C51.6801 110.181 51.2845 110.544 50.7694 110.716C50.2544 110.888 49.7105 110.831 49.1378 110.546C48.5842 110.27 48.2213 109.874 48.0491 109.359C47.8769 108.844 47.9289 108.31 48.2051 107.756C48.4812 107.202 48.9055 106.854 49.4778 106.71C50.0405 106.538 50.6846 106.633 51.41 106.995Z" fill="black"/>
<path d="M72.8493 96.828L71.0921 98.2596C69.9467 99.1803 68.8128 99.651 67.6902 99.6717C66.5638 99.6625 65.52 99.2854 64.5588 98.5406C63.8506 97.9917 63.319 97.3368 62.964 96.5759C62.6053 95.7851 62.5102 94.9152 62.6788 93.9663C62.8305 93.0043 63.3246 91.9837 64.1609 90.9045C65.0626 89.741 65.9799 88.9405 66.9128 88.5029C67.8457 88.0653 68.7332 87.9299 69.5755 88.0968C70.4178 88.2638 71.1389 88.6741 71.7387 89.3279L70.0884 92.5023C69.1247 91.3776 68.1872 90.759 67.2758 90.6465C66.3774 90.5171 65.6016 90.8739 64.9482 91.7171C64.4908 92.3072 64.2889 92.9335 64.3425 93.5957C64.3791 94.2449 64.7179 94.8178 65.3587 95.3144C65.9488 95.7717 66.6023 96.0082 67.3189 96.0238C68.0187 96.0263 68.6993 95.7576 69.3607 95.2175L71.1179 93.7859C72.3716 92.7602 73.526 92.2109 74.5811 92.1379C75.6194 92.0519 76.5939 92.3617 77.5044 93.0674C78.6342 93.9429 79.2518 95.0963 79.3573 96.5275C79.4589 97.9287 78.8694 99.4556 77.5887 101.108C77.1444 101.681 76.5701 102.248 75.8657 102.809C75.1575 103.34 74.3451 103.709 73.4287 103.916C72.5253 104.107 71.5372 103.989 70.4643 103.562L71.0808 101.409C72.2852 102.153 73.3633 102.381 74.3152 102.093C75.2801 101.789 76.0762 101.231 76.7034 100.422C77.2915 99.6633 77.5998 98.9171 77.6285 98.1836C77.6534 97.4202 77.337 96.7836 76.6793 96.274C76.224 95.9212 75.6868 95.7612 75.0675 95.7941C74.4444 95.797 73.705 96.1417 72.8493 96.828Z" fill="black"/>
<path d="M97.3266 61.1313C96.438 61.6402 96.0153 62.4476 96.0587 63.5537C96.1099 64.6306 96.7027 66.1595 97.837 68.1403L98.7911 69.8065C99.9149 71.7689 100.976 73.042 101.974 73.6259C102.961 74.1912 104.02 74.1506 105.149 73.5039C105.982 73.0269 106.525 72.4085 106.779 71.6489C107.04 70.8601 106.884 69.8799 106.312 68.7082L108.375 68.1903C108.784 69.677 108.703 70.9525 108.132 72.0168C107.57 73.0519 106.696 73.9087 105.511 74.5871C103.382 75.8063 101.415 76.0846 99.6099 75.4221C97.7941 74.741 96.2766 73.336 95.0575 71.207L94.7395 70.6516C93.5203 68.5226 93.0634 66.5226 93.3686 64.6516C93.6739 62.7805 94.8077 61.2831 96.77 60.1594C98.066 59.4173 99.2696 59.0723 100.381 59.1242C101.5 59.147 102.465 59.4795 103.275 60.1218C104.094 60.7349 104.69 61.5613 105.064 62.6008L102.264 64.7943C101.577 63.1226 100.804 61.967 99.9464 61.3274C99.0885 60.6879 98.2152 60.6225 97.3266 61.1313Z" fill="black"/>
<path d="M131.254 54.2637L131.428 54.8799C132.092 57.2416 132.01 59.3145 131.182 61.0986C130.368 62.8563 128.832 64.0527 126.573 64.6879C124.314 65.323 122.369 65.1053 120.738 64.0347C119.123 62.9377 117.983 61.2084 117.319 58.8466L117.145 58.2305C116.481 55.8687 116.556 53.809 117.369 52.0513C118.203 50.2878 119.75 49.0884 122.009 48.4533C124.268 47.8182 126.202 48.0388 127.812 49.1152C129.443 50.1858 130.59 51.902 131.254 54.2637ZM127.292 54.7129C126.674 52.5155 125.958 51.0326 125.144 50.2643C124.324 49.4755 123.38 49.2312 122.312 49.5315C121.264 49.826 120.586 50.5264 120.277 51.6328C119.982 52.7128 120.143 54.3516 120.761 56.5491L121.281 58.3974C121.893 60.5744 122.612 62.0675 123.438 62.8768C124.278 63.6599 125.222 63.9041 126.27 63.6097C127.338 63.3094 128.016 62.609 128.305 61.5084C128.588 60.3872 128.424 58.7382 127.812 56.5613L127.292 54.7129Z" fill="black"/>
<path d="M157.116 51.0599L157.134 51.6997C157.205 54.152 156.622 56.1429 155.386 57.6725C154.17 59.1802 152.389 59.9678 150.044 60.0354C147.698 60.1029 145.864 59.4195 144.542 57.985C143.241 56.5285 142.555 54.5741 142.484 52.1218L142.466 51.482C142.395 49.0297 142.968 47.0498 144.184 45.5421C145.421 44.0339 147.212 43.2459 149.558 43.1784C151.904 43.1108 153.727 43.7945 155.027 45.2297C156.349 46.6642 157.045 48.6076 157.116 51.0599ZM153.163 50.5336C153.097 48.2519 152.763 46.6395 152.159 45.6965C151.555 44.7321 150.699 44.2659 149.59 44.2979C148.503 44.3292 147.674 44.844 147.106 45.8421C146.557 46.8183 146.316 48.4472 146.382 50.729L146.437 52.6482C146.502 54.9086 146.837 56.5316 147.442 57.5172C148.067 58.481 148.924 58.9472 150.011 58.9158C151.12 58.8839 151.948 58.3691 152.496 57.3716C153.043 56.3528 153.284 54.7132 153.218 52.4528L153.163 50.5336Z" fill="black"/>
<path d="M169.047 44.1045L169.247 43.2312L175.049 44.5609L174.455 47.1497C175.282 46.3106 176.104 45.733 176.921 45.4167C177.737 45.1005 178.634 45.0544 179.612 45.2784C181.358 45.6787 182.582 46.6922 183.281 48.319C184.006 49.9297 184.083 51.9827 183.511 54.478L183.368 55.1018C182.815 57.5139 181.782 59.3016 180.268 60.4647C178.754 61.6279 176.946 61.9688 174.846 61.4874C173.599 61.2015 172.568 60.637 171.754 59.7939L170.689 64.4414C170.527 65.1484 170.463 65.5714 170.497 65.7105C170.526 65.8704 170.702 66.0092 171.025 66.127L173.314 66.8815L173.114 67.7549L164.1 65.6889L164.3 64.8155L166.066 64.9904C166.408 65.0251 166.627 64.9768 166.723 64.8455C166.814 64.735 166.94 64.3263 167.102 63.6193L171.048 46.4017C171.21 45.6947 171.274 45.2717 171.241 45.1326C171.212 44.9728 171.036 44.8339 170.712 44.7161L169.047 44.1045ZM178.486 46.4649C177.966 46.3458 177.365 46.4378 176.683 46.7411C176.026 47.0283 175.215 47.7506 174.249 48.9082L172.09 58.3279C172.699 59.2992 173.576 59.9159 174.719 60.178C175.884 60.4449 176.832 60.1261 177.565 59.2216C178.323 58.301 178.907 56.9466 179.317 55.1583L179.889 52.663C180.332 50.7291 180.417 49.2603 180.144 48.2565C179.87 47.2528 179.318 46.6556 178.486 46.4649Z" fill="black"/>
<path d="M204.926 67.9112C203.903 69.065 202.781 69.6883 201.559 69.781C200.346 69.8548 199.123 69.5754 197.889 68.9429C195.611 67.7753 194.238 66.2445 193.77 64.3507C193.312 62.438 193.643 60.3899 194.762 58.2067L195.054 57.6371C196.173 55.4539 197.599 53.9797 199.334 53.2147C201.088 52.4593 202.98 52.6023 205.011 53.6434C206.151 54.2273 207.04 54.9708 207.68 55.874C208.348 56.768 208.715 57.7592 208.781 58.8475C208.865 59.9456 208.601 61.0926 207.988 62.2887C207.842 62.5735 207.667 62.8675 207.464 63.1708C207.279 63.4838 207.066 63.7822 206.825 64.066L198.396 59.7457L197.973 60.5715C196.941 62.5839 196.481 64.1822 196.594 65.3664C196.716 66.5317 197.413 67.4402 198.685 68.0922C199.501 68.5106 200.316 68.6285 201.128 68.4457C201.951 68.2441 202.697 67.5836 203.366 66.4645L204.926 67.9112ZM204.501 54.6401C203.57 54.1633 202.658 54.2353 201.765 54.8561C200.871 55.4769 199.919 56.7745 198.907 58.749L204.061 61.3908C204.332 61.05 204.559 60.7231 204.744 60.4101C204.957 60.0879 205.136 59.7843 205.282 59.4996C205.905 58.2845 206.125 57.2706 205.942 56.4578C205.759 55.645 205.279 55.0391 204.501 54.6401Z" fill="black"/>
<path d="M221.067 63.6851L221.646 63.0016L226.186 66.8507L224.489 68.8522C226.751 68.1967 228.566 68.4484 229.932 69.6073C230.437 70.0349 230.787 70.6115 230.983 71.3371C231.193 72.0463 231.087 72.9632 230.665 74.0878L227.499 73.4176C227.837 72.5573 227.948 71.8822 227.832 71.3922C227.746 70.8998 227.532 70.5088 227.19 70.219C226.832 69.9155 226.386 69.7328 225.851 69.6709C225.316 69.609 224.608 69.7355 223.725 70.0503L217.579 77.2995C217.11 77.8528 216.852 78.2071 216.804 78.3624C216.77 78.5014 216.869 78.6975 217.102 78.9508L218.788 80.6737L218.208 81.3572L211.155 75.3766L211.734 74.6932L213.221 75.6605C213.509 75.8487 213.719 75.9146 213.851 75.8584C213.996 75.7859 214.303 75.473 214.772 74.9197L221.787 66.6454C222.257 66.0921 222.508 65.746 222.542 65.607C222.59 65.4517 222.497 65.2474 222.264 64.9941L221.067 63.6851Z" fill="black"/>
<path d="M237.888 101.557C237.428 101.471 236.967 101.294 236.504 101.025C236.054 100.773 235.627 100.372 235.223 99.8218C234.705 99.1169 234.424 98.4101 234.38 97.7014C234.348 97.0098 234.559 96.3783 235.013 95.8067C233.977 95.6941 233.061 95.4014 232.263 94.9284C231.495 94.46 230.853 93.8734 230.335 93.1685C229.463 91.9823 229.139 90.8569 229.363 89.7924C229.604 88.7153 230.223 87.8104 231.22 87.0778C232.235 86.3325 233.323 86.1021 234.485 86.3867C235.664 86.6586 236.942 87.7315 238.319 89.6054L240.043 91.9521L242.132 90.4173C243.559 89.3689 244.391 88.4662 244.629 87.709C244.897 86.9564 244.791 86.2535 244.311 85.6002C243.995 85.1704 243.593 84.8571 243.104 84.6602C242.632 84.4508 242.048 84.4834 241.349 84.7582C240.681 85.0375 239.875 85.6696 238.931 86.6544L237.259 83.5146C237.949 82.7961 238.743 82.3452 239.64 82.162C240.568 81.9834 241.516 82.1207 242.484 82.574C243.47 83.0147 244.392 83.8195 245.251 84.9886C246.224 86.3124 246.761 87.4932 246.861 88.531C246.962 89.5689 246.761 90.4843 246.258 91.2772C245.768 92.0874 245.119 92.7893 244.311 93.3829L238.354 97.7597C237.477 98.4039 236.984 98.8855 236.874 99.2044C236.764 99.5233 236.779 99.7774 236.918 99.9665C237.145 100.276 237.578 100.487 238.217 100.6L237.888 101.557ZM232.535 93.299C232.864 93.746 233.297 94.1023 233.837 94.3679C234.406 94.638 235.185 94.7801 236.175 94.7941L239.141 92.6152L237.72 90.6811C237.101 89.8387 236.455 89.3737 235.781 89.286C235.108 89.1983 234.35 89.4639 233.508 90.0828C232.82 90.5881 232.388 91.1172 232.212 91.6701C232.036 92.2231 232.144 92.7661 232.535 93.299Z" fill="black"/>
<path d="M249.389 117.617C248.085 117.88 247.011 117.764 246.169 117.269C245.355 116.785 244.727 116.034 244.286 115.017C243.836 113.979 243.692 113.03 243.854 112.169C244.035 111.3 244.44 110.544 245.067 109.9C245.695 109.256 246.439 108.747 247.3 108.374L255.052 105.014C255.717 104.725 256.096 104.526 256.188 104.417C256.299 104.298 256.307 104.074 256.21 103.744L255.716 102.04L256.538 101.684L257.518 103.945L260.924 102.468L263.063 105.552L258.981 107.321L261.018 112.019L259.99 112.464L257.954 107.767L248.177 112.005C246.924 112.548 246.121 113.082 245.767 113.607C245.433 114.124 245.372 114.627 245.585 115.116C245.805 115.625 246.171 115.932 246.681 116.036C247.2 116.16 247.995 116.036 249.066 115.665L249.389 117.617Z" fill="black"/>
<path d="M256.434 140.252C254.895 140.15 253.715 139.644 252.893 138.734C252.093 137.821 251.564 136.683 251.309 135.32C250.837 132.804 251.206 130.781 252.417 129.252C253.648 127.718 255.47 126.726 257.881 126.273L258.51 126.155C260.922 125.703 262.961 125.928 264.628 126.831C266.299 127.754 267.345 129.338 267.766 131.582C268.002 132.84 267.958 133.998 267.636 135.057C267.339 136.133 266.78 137.03 265.96 137.748C265.143 138.488 264.075 138.981 262.754 139.229C262.439 139.288 262.1 139.33 261.735 139.355C261.375 139.401 261.009 139.415 260.637 139.398L258.89 130.089L257.978 130.26C255.755 130.677 254.21 131.292 253.343 132.106C252.496 132.916 252.205 134.023 252.469 135.428C252.638 136.33 253.043 137.046 253.686 137.577C254.349 138.103 255.328 138.289 256.622 138.133L256.434 140.252ZM266.665 131.788C266.472 130.761 265.857 130.084 264.819 129.758C263.781 129.431 262.171 129.473 259.991 129.882L261.059 135.575C261.494 135.58 261.892 135.56 262.252 135.514C262.637 135.485 262.987 135.441 263.302 135.382C264.644 135.13 265.58 134.683 266.111 134.041C266.641 133.399 266.826 132.648 266.665 131.788Z" fill="black"/>
<path d="M260.473 153.919L260.492 152.799C261.942 152.823 263.212 152.801 264.301 152.734C265.391 152.667 266.374 152.576 267.25 152.463C268.148 152.35 269.014 152.236 269.848 152.122C270.682 152.008 271.569 151.916 272.509 151.846C273.471 151.776 274.57 151.752 275.807 151.772L275.746 155.452C274.509 155.431 273.411 155.371 272.453 155.269C271.515 155.168 270.632 155.047 269.802 154.905C268.972 154.764 268.111 154.621 267.217 154.478C266.344 154.336 265.365 154.213 264.279 154.11C263.192 154.006 261.924 153.943 260.473 153.919ZM253.7 153.23C253.711 152.569 253.922 152.028 254.335 151.608C254.768 151.21 255.326 151.017 256.009 151.028C256.691 151.039 257.232 151.251 257.63 151.663C258.028 152.096 258.222 152.644 258.211 153.305C258.2 153.966 257.989 154.507 257.576 154.927C257.164 155.347 256.616 155.551 255.934 155.539C255.251 155.528 254.7 155.306 254.281 154.872C253.882 154.439 253.689 153.891 253.7 153.23Z" fill="black"/>
</svg>
