<svg width="24" height="18" viewBox="0 0 24 18" fill="none" xmlns="http://www.w3.org/2000/svg">
<path d="M1.632 10.7849C1.632 14.2089 2.944 15.9209 5.568 15.9209C6.128 15.9209 6.68 15.8569 7.224 15.7289C7.768 15.6009 8.4 15.3689 9.12 15.0329L9.672 16.3529C8.952 16.6889 8.248 16.9369 7.56 17.0969C6.872 17.2569 6.2 17.3369 5.544 17.3369C3.752 17.3369 2.376 16.7689 1.416 15.6329C0.472 14.4969 0 12.8809 0 10.7849V7.08887C0 4.99287 0.472 3.37687 1.416 2.24087C2.376 1.10487 3.752 0.536865 5.544 0.536865C6.2 0.536865 6.888 0.616865 7.608 0.776866C8.328 0.936866 9.016 1.18487 9.672 1.52087L9.144 2.84087C7.944 2.24887 6.744 1.95287 5.544 1.95287C2.936 1.95287 1.632 3.66487 1.632 7.08887V10.7849ZM23.2408 0.776866L18.0088 17.0969H16.4488L11.1928 0.776866H12.7768L15.4408 9.08087L17.2888 14.9369L19.1368 9.08087L21.7528 0.776866H23.2408Z" fill="#FFFFFA"/>
</svg>
