<svg width="26" height="26" viewBox="0 0 26 26" fill="none" xmlns="http://www.w3.org/2000/svg">
<path d="M12.7407 0.536865C5.84388 0.536865 0.240723 6.14899 0.240723 13.0569C0.240723 19.3278 4.85864 24.5174 10.873 25.4224L11.5256 25.5213V15.6556H8.57258V13.6526H11.5256V10.9928C11.5256 9.35492 11.918 8.27618 12.5676 7.59938C13.2172 6.92258 14.1771 6.58124 15.5128 6.58124C16.5809 6.58124 16.9964 6.64606 17.3916 6.69461V8.33409H16.0011C15.2121 8.33409 14.5648 8.77498 14.2289 9.36223C13.8929 9.94948 13.7883 10.6507 13.7883 11.3652V13.6515H17.2673L16.9577 15.6545H13.7883V25.5369L14.4331 25.4491C20.533 24.6204 25.2407 19.3891 25.2407 13.0569C25.2407 6.14899 19.6376 0.536865 12.7407 0.536865ZM12.7407 1.67505C19.0234 1.67505 24.1044 6.76411 24.1044 13.0569C24.1044 18.594 20.1474 23.1479 14.9247 24.173V16.7926H17.932L18.5923 12.5133H14.9247V11.3652C14.9247 10.7747 15.0325 10.2457 15.2143 9.92798C15.3961 9.61023 15.5713 9.47226 16.0011 9.47226H18.528V5.66424L18.0353 5.59755C17.6945 5.55136 16.9164 5.44305 15.5128 5.44305C13.977 5.44305 12.6587 5.8621 11.7486 6.8102C10.8386 7.7583 10.3892 9.17005 10.3892 10.9928V12.5145H7.43622V16.7938H10.3892V24.1375C5.25039 23.0472 1.37709 18.5341 1.37709 13.0569C1.37709 6.76411 6.45802 1.67505 12.7407 1.67505Z" fill="#FFFFFA"/>
</svg>
