<svg width="26" height="26" viewBox="0 0 26 26" fill="none" xmlns="http://www.w3.org/2000/svg">
<path d="M7.62709 0.536865C3.55463 0.536865 0.240723 3.85077 0.240723 7.92323V18.1505C0.240723 22.223 3.55463 25.5369 7.62709 25.5369H17.8544C21.9268 25.5369 25.2407 22.223 25.2407 18.1505V7.92323C25.2407 3.85077 21.9268 0.536865 17.8544 0.536865H7.62709ZM7.62709 1.67323H17.8544C21.3126 1.67323 24.1044 4.465 24.1044 7.92323V18.1505C24.1044 21.6087 21.3126 24.4005 17.8544 24.4005H7.62709C4.16886 24.4005 1.37709 21.6087 1.37709 18.1505V7.92323C1.37709 4.465 4.16886 1.67323 7.62709 1.67323ZM19.5589 5.08232C18.9313 5.08232 18.4225 5.59109 18.4225 6.21868C18.4225 6.84628 18.9313 7.35505 19.5589 7.35505C20.1865 7.35505 20.6953 6.84628 20.6953 6.21868C20.6953 5.59109 20.1865 5.08232 19.5589 5.08232ZM12.7407 6.78687C9.29567 6.78687 6.49072 9.59181 6.49072 13.0369C6.49072 16.4819 9.29567 19.2869 12.7407 19.2869C16.1858 19.2869 18.9907 16.4819 18.9907 13.0369C18.9907 9.59181 16.1858 6.78687 12.7407 6.78687ZM12.7407 7.92323C15.5716 7.92323 17.8544 10.206 17.8544 13.0369C17.8544 15.8678 15.5716 18.1505 12.7407 18.1505C9.90981 18.1505 7.62709 15.8678 7.62709 13.0369C7.62709 10.206 9.90981 7.92323 12.7407 7.92323Z" fill="#FFFFFA"/>
</svg>
