<svg width="1440" height="654" viewBox="0 0 1440 654" fill="none" xmlns="http://www.w3.org/2000/svg">
<path d="M0 2.36499C14.01 2.36499 19.2077 2.65891 32.8427 2.65891C42.6361 2.65891 61.7867 7.33199 71.3427 10.1724C79.4912 12.5944 91.0001 20.4312 97.6886 26.4444C118.235 44.9167 135.593 63.9943 140.558 94.1204C144.77 119.687 145.034 144.857 142.202 171.048C139.249 198.356 127.92 227.426 118.41 252.158C111.111 271.142 101.469 297.339 107.008 318.947C130.645 411.161 231.933 392.487 297 392.487" stroke="#960200" stroke-width="3" stroke-linecap="round" stroke-dasharray="20 8"/>
<path d="M277 392.481C330.294 393.631 378.198 388.721 421.383 386.922C481.851 384.404 536.966 380.904 600.303 401.703C677.339 427 783.816 500.334 851.383 553.486C914.474 603.116 971.488 609.035 1041.41 617.969C1069.16 621.515 1479.42 654.137 1450.55 651.889" stroke="#960200" stroke-width="3" stroke-linecap="round" stroke-dasharray="20 8"/>
</svg>
