<svg width="26" height="26" viewBox="0 0 26 26" fill="none" xmlns="http://www.w3.org/2000/svg">
<path d="M3.21691 0.536865C1.58029 0.536865 0.240723 1.87644 0.240723 3.51306V22.5607C0.240723 24.1973 1.58029 25.5369 3.21691 25.5369H22.2645C23.9012 25.5369 25.2407 24.1973 25.2407 22.5607V3.51306C25.2407 1.87644 23.9012 0.536865 22.2645 0.536865H3.21691ZM3.21691 1.72734H22.2645C23.2577 1.72734 24.0502 2.51991 24.0502 3.51306V22.5607C24.0502 23.5538 23.2577 24.3464 22.2645 24.3464H3.21691C2.22377 24.3464 1.4312 23.5538 1.4312 22.5607V3.51306C1.4312 2.51991 2.22377 1.72734 3.21691 1.72734ZM6.1931 4.71051C5.54119 4.71051 4.95454 4.90536 4.52016 5.27087C4.08577 5.63638 3.81913 6.18241 3.81913 6.7671C3.81913 7.87852 4.78316 8.74497 6.00942 8.83067C6.01019 8.83106 6.01097 8.83145 6.01175 8.83184C6.07018 8.85175 6.13138 8.86235 6.19311 8.86322C7.54609 8.86322 8.56709 7.91548 8.56709 6.7671C8.56698 6.75663 8.56659 6.74616 8.56592 6.73571C8.50536 5.60462 7.49694 4.71051 6.1931 4.71051ZM6.1931 5.88703C7.02181 5.88703 7.34904 6.25713 7.38474 6.78222C7.37751 7.29189 7.0622 7.6867 6.1931 7.6867C5.36845 7.6867 4.99565 7.26438 4.99565 6.7671C4.99565 6.51847 5.08638 6.33109 5.277 6.1707C5.46761 6.01032 5.77359 5.88703 6.1931 5.88703ZM4.40739 9.46544C4.07866 9.46547 3.81219 9.73195 3.81215 10.0607V21.3702C3.81219 21.6989 4.07866 21.9654 4.40739 21.9654H7.97882C8.30754 21.9654 8.57402 21.6989 8.57406 21.3702V17.879V10.0607C8.57402 9.73195 8.30754 9.46547 7.97882 9.46544H4.40739ZM9.76453 9.46544C9.43581 9.46547 9.16933 9.73195 9.16929 10.0607V21.3702C9.16933 21.6989 9.43581 21.9654 9.76453 21.9654H13.336C13.6647 21.9654 13.9312 21.6989 13.9312 21.3702V15.4178C13.9312 14.924 14.066 14.4327 14.3032 14.1111C14.5405 13.7894 14.8398 13.5964 15.4088 13.6065C15.9956 13.6166 16.3062 13.8176 16.5412 14.1332C16.7762 14.4487 16.9074 14.9218 16.9074 15.4178V21.3702C16.9074 21.6989 17.1739 21.9654 17.5026 21.9654H21.074C21.4028 21.9654 21.6693 21.6989 21.6693 21.3702V14.9784C21.6693 13.2155 21.1471 11.8192 20.2521 10.8745C19.3571 9.92975 18.1122 9.46544 16.7958 9.46544C15.5446 9.46544 14.5924 9.88501 13.9312 10.313V10.0607C13.9312 9.73195 13.6647 9.46547 13.336 9.46544H9.76453ZM5.00263 10.6559H7.38358V17.879V20.775H5.00263V10.6559ZM10.3598 10.6559H12.7407V11.5848C12.7408 11.8408 12.9045 12.068 13.1472 12.1492C13.39 12.2304 13.6574 12.1473 13.8114 11.9429C13.8114 11.9429 14.7462 10.6559 16.7958 10.6559C17.8394 10.6559 18.7344 11.0027 19.3883 11.6929C20.0422 12.3832 20.4788 13.4465 20.4788 14.9784V20.775H18.0979V15.4178C18.0979 14.7234 17.9315 14.0054 17.4968 13.4217C17.0621 12.838 16.3311 12.4315 15.4297 12.416C14.5238 12.4 13.7809 12.8148 13.3453 13.4054C12.9096 13.996 12.7407 14.7212 12.7407 15.4178V20.775H10.3598L10.3598 10.6559Z" fill="#FFFFFA"/>
</svg>
