<svg width="393" height="852" viewBox="0 0 393 852" fill="none" xmlns="http://www.w3.org/2000/svg">
<rect width="393" height="852" fill="url(#paint0_linear_1_2)"/>
<path d="M136.544 356.464C137.824 356.464 138.891 355.931 139.744 354.864C140.64 353.797 141.365 352.496 141.92 350.96C142.517 349.424 142.944 347.824 143.2 346.16C143.456 344.496 143.584 343.045 143.584 341.808C143.584 340.656 143.392 339.696 143.008 338.928C142.624 338.117 141.792 337.712 140.512 337.712H137.632L133.6 356.464H136.544ZM132.704 360.56L129.824 374H116L124.64 333.36H139.424C141.856 333.36 144.075 333.488 146.08 333.744C148.085 334 149.813 334.512 151.264 335.28C152.715 336.048 153.845 337.157 154.656 338.608C155.467 340.016 155.872 341.915 155.872 344.304C155.872 346.523 155.509 348.635 154.784 350.64C154.101 352.603 152.971 354.331 151.392 355.824C149.856 357.275 147.851 358.427 145.376 359.28C142.901 360.133 139.893 360.56 136.352 360.56H132.704ZM178.247 346.48H191.303L185.415 374H175.047L173.895 369.904H173.511C172.402 371.227 170.887 372.336 168.967 373.232C167.09 374.085 165.191 374.512 163.271 374.512C160.711 374.512 158.706 373.872 157.255 372.592C155.804 371.269 155.079 369.563 155.079 367.472C155.079 366.405 155.25 365.083 155.591 363.504C155.975 361.883 156.316 360.368 156.615 358.96L159.303 346.48H172.295L169.095 361.456C169.01 361.797 168.924 362.203 168.839 362.672C168.754 363.141 168.668 363.611 168.583 364.08C168.498 364.507 168.412 364.933 168.327 365.36C168.284 365.744 168.263 366.064 168.263 366.32C168.263 366.96 168.391 367.515 168.647 367.984C168.946 368.411 169.458 368.624 170.183 368.624C170.951 368.624 171.676 368.368 172.359 367.856C173.042 367.344 173.575 366.853 173.959 366.384L178.247 346.48ZM204.229 374H191.172L200.26 330.992H213.381L204.229 374ZM230.211 354.544C230.253 354.331 230.296 354.117 230.339 353.904C230.381 353.691 230.403 353.456 230.403 353.2C230.403 352.432 230.253 351.728 229.955 351.088C229.699 350.405 229.165 350.064 228.355 350.064C227.629 350.064 226.904 350.384 226.179 351.024C225.453 351.621 225.091 352.432 225.091 353.456C225.091 354.139 225.261 354.693 225.603 355.12C225.987 355.504 226.477 355.824 227.075 356.08C227.672 356.336 228.333 356.549 229.059 356.72C229.827 356.891 230.573 357.061 231.299 357.232C232.323 357.488 233.283 357.808 234.179 358.192C235.117 358.533 235.949 359.003 236.675 359.6C237.4 360.197 237.976 360.944 238.403 361.84C238.829 362.693 239.043 363.76 239.043 365.04C239.043 366.832 238.616 368.347 237.763 369.584C236.952 370.779 235.8 371.76 234.307 372.528C232.856 373.253 231.128 373.765 229.123 374.064C227.16 374.363 225.048 374.512 222.787 374.512C219.331 374.512 216.472 374.256 214.211 373.744C211.949 373.232 210.37 372.741 209.474 372.272L210.819 365.872H219.459C219.416 366.085 219.395 366.299 219.395 366.512C219.395 366.683 219.395 366.875 219.395 367.088C219.395 368.069 219.608 368.859 220.035 369.456C220.504 370.011 221.293 370.288 222.403 370.288C223.64 370.288 224.515 369.947 225.027 369.264C225.581 368.539 225.859 367.877 225.859 367.28C225.859 366.683 225.624 366.171 225.155 365.744C224.728 365.275 224.173 364.891 223.491 364.592C222.808 364.251 222.04 363.973 221.187 363.76C220.376 363.504 219.587 363.269 218.819 363.056C218.264 362.928 217.624 362.715 216.899 362.416C216.216 362.117 215.555 361.691 214.915 361.136C214.275 360.581 213.741 359.877 213.315 359.024C212.888 358.128 212.674 357.019 212.674 355.696C212.674 353.819 213.123 352.261 214.019 351.024C214.957 349.744 216.152 348.72 217.603 347.952C219.096 347.184 220.76 346.629 222.595 346.288C224.472 345.947 226.349 345.776 228.227 345.776C230.573 345.776 232.792 345.989 234.883 346.416C236.973 346.843 238.68 347.397 240.003 348.08L238.531 354.544H230.211ZM255.452 361.136C255.281 362.075 255.153 362.971 255.068 363.824C255.025 364.677 255.004 365.445 255.004 366.128C255.004 366.512 255.025 366.939 255.068 367.408C255.111 367.877 255.196 368.325 255.324 368.752C255.495 369.136 255.708 369.477 255.964 369.776C256.263 370.032 256.668 370.16 257.18 370.16C257.564 370.16 257.991 370.032 258.46 369.776C258.972 369.52 259.463 369.157 259.932 368.688C260.444 368.219 260.913 367.643 261.34 366.96C261.809 366.277 262.172 365.509 262.428 364.656H272.924L271.26 371.504C270.407 372.059 269.425 372.528 268.316 372.912C267.207 373.296 266.033 373.616 264.796 373.872C263.559 374.085 262.3 374.235 261.02 374.32C259.74 374.448 258.524 374.512 257.372 374.512C255.239 374.512 253.255 374.32 251.42 373.936C249.585 373.552 247.985 372.891 246.62 371.952C245.255 371.013 244.167 369.776 243.356 368.24C242.588 366.661 242.204 364.72 242.204 362.416C242.204 360.325 242.524 358.277 243.164 356.272C243.847 354.267 244.956 352.496 246.492 350.96C248.071 349.381 250.161 348.123 252.764 347.184C255.409 346.245 258.695 345.776 262.62 345.776C266.887 345.776 270.087 346.437 272.22 347.76C274.396 349.083 275.484 351.152 275.484 353.968C275.484 355.12 275.313 356.379 274.972 357.744C274.631 359.067 274.119 360.197 273.436 361.136H255.452ZM263.964 353.52C263.964 352.197 263.751 351.301 263.324 350.832C262.897 350.363 262.385 350.128 261.788 350.128C261.105 350.128 260.465 350.363 259.868 350.832C259.313 351.259 258.801 351.856 258.332 352.624C257.863 353.349 257.436 354.203 257.052 355.184C256.668 356.123 256.348 357.125 256.092 358.192H263.388C263.473 357.68 263.559 357.147 263.644 356.592C263.729 356.123 263.793 355.611 263.836 355.056C263.921 354.501 263.964 353.989 263.964 353.52Z" fill="white"/>
<defs>
<linearGradient id="paint0_linear_1_2" x1="196" y1="450" x2="197.655" y2="851.993" gradientUnits="userSpaceOnUse">
<stop stop-color="#FF8A00"/>
<stop offset="0.5" stop-color="#D67400"/>
<stop offset="1" stop-color="#A55900"/>
</linearGradient>
</defs>
</svg>
